<svg xmlns="http://www.w3.org/2000/svg" aria-hidden="true" style="position:absolute;width:0;height:0;overflow:hidden">
  <defs>
    <symbol id="icon-diagram-1" viewBox="0 0 35 32">
      <path fill="#4d5ae5" d="M16.665 14.734h1.05v4.724h-1.05v-4.724zM20.864 16.834h1.05v2.624h-1.05v-2.624zM12.466 18.408h1.05v1.05h-1.05v-1.05zM9.317 17.883h1.05v1.575h-1.05v-1.575z" style="fill:var(--color1, #4d5ae5)"/>
      <path fill="#2e2f42" d="M3.544 27.856h25.193c.87 0 1.575-.705 1.575-1.575v-2.099c0-.87-.705-1.575-1.575-1.575h-.525V9.518l2.981-2.824a1.583 1.583 0 1 0-.735-.752l-2.246 2.129V6.86c0-.87-.705-1.575-1.575-1.575H5.643c-.87 0-1.575.705-1.575 1.575v15.746h-.525c-.87 0-1.575.705-1.575 1.575v2.099c0 .87.705 1.575 1.575 1.575zM31.886 4.762a.525.525 0 1 1 0 1.05.525.525 0 0 1 0-1.05zm-26.768 2.1c0-.29.235-.525.525-.525h20.994c.29 0 .525.235.525.525v2.204l-1.05.997V7.911a.525.525 0 0 0-.525-.525H6.692a.525.525 0 0 0-.525.525v13.121c0 .29.235.525.525.525h18.895c.29 0 .525-.235.525-.525v-9.525l1.05-.995v12.095H5.118V6.861zm4.724 6.823a1.576 1.576 0 1 0 1.091 2.707l1.824.915a.526.526 0 0 0 .627-.121l3.878-4.363 3.812 2.857c.204.153.49.137.676-.039l3.313-3.139v8.006H7.218V8.436h17.845v2.619l-3.713 3.517-3.844-2.882a.524.524 0 0 0-.707.071l-3.932 4.424-1.47-.735a1.53 1.53 0 0 0 .02-.19c0-.87-.705-1.575-1.575-1.575zm.525 1.574a.525.525 0 1 1-1.05 0 .525.525 0 0 1 1.05 0zm3.149 8.398h5.249v.525c0 .29-.235.525-.525.525h-4.199a.525.525 0 0 1-.525-.525v-.525zm-10.497.525c0-.29.235-.525.525-.525h8.923v.525c0 .87.705 1.575 1.575 1.575h4.199c.869 0 1.575-.705 1.575-1.575v-.525h8.922c.29 0 .525.235.525.525v2.099c0 .29-.235.525-.525.525H3.545a.525.525 0 0 1-.525-.525v-2.099z" style="fill:var(--color2, #2e2f42)"/>
    </symbol>
    <symbol id="icon-astronaut-1" viewBox="0 0 33 32">
      <path fill="#4d5ae5" d="M31.512 4.196a.494.494 0 0 0-.399-.336l-1.772-.258-.793-1.606c-.166-.338-.721-.338-.887 0l-.793 1.606-1.772.258a.494.494 0 0 0-.275.843l1.283 1.25-.303 1.765a.497.497 0 0 0 .196.484.492.492 0 0 0 .521.038l1.585-.834 1.585.834a.496.496 0 0 0 .522-.037.493.493 0 0 0 .196-.484l-.303-1.765 1.283-1.25a.497.497 0 0 0 .125-.507zm-2.284 1.231a.495.495 0 0 0-.142.438l.177 1.033-.928-.488a.493.493 0 0 0-.462 0l-.928.488.177-1.033a.496.496 0 0 0-.142-.438l-.751-.732 1.038-.151a.494.494 0 0 0 .372-.271l.464-.94.464.94a.496.496 0 0 0 .372.271l1.038.151-.75.732zM26.095 19.035h-.989v.989h.989v-.989zM26.095 21.014h-.989v.989h.989v-.989zM27.084 20.024h-.989v.989h.989v-.989zM25.105 20.024h-.989v.989h.989v-.989zM22.632 24.477h-.989v.989h.989v-.989zM22.632 26.455h-.989v.989h.989v-.989z" style="fill:var(--color1, #4d5ae5)"/>
      <path fill="#4d5ae5" d="M23.621 25.466h-.989v.989h.989v-.989zM21.643 25.466h-.989v.989h.989v-.989zM16.696 22.498h-.989v.989h.989v-.989zM16.696 24.477h-.989v.989h.989v-.989z" style="fill:var(--color1, #4d5ae5)"/>
      <path fill="#4d5ae5" d="M17.685 23.487h-.989v.989h.989v-.989zM15.706 23.487h-.989v.989h.989v-.989zM7.296 5.678h-.989v.989h.989v-.989zM7.296 7.657h-.989v.989h.989v-.989zM8.286 6.668h-.989v.989h.989v-.989zM6.307 6.668h-.989v.989h.989v-.989z" style="fill:var(--color1, #4d5ae5)"/>
      <path fill="#2e2f42" d="M24.779 13.133a1.643 1.643 0 0 0-1.102-.653 1.652 1.652 0 0 0-1.243.326l-1.162.89-1.76 1.314-1.259-.502c2.246-1.008 3.816-3.254 3.816-5.862 0-3.546-2.896-6.431-6.457-6.431S9.155 5.1 9.155 8.646c0 1.285.384 2.48 1.039 3.486L7.63 12.11h-.004c-.008 0-.014.004-.022.005a.48.48 0 0 0-.144.029l-.036.012-.018.006-2.999 1.481h-.001l-1.756.845a.342.342 0 0 0-.058.033 1.652 1.652 0 0 0 .424 2.954 1.652 1.652 0 0 0 1.279-.119l1.287-.685 2.1-1.084 1.258-.007-5.047 5.023-.002.001-1.242 1.237c-.293.292-.455.679-.455 1.092s.161.801.455 1.093c.301.3.698.45 1.094.45s.792-.15 1.095-.45l1.219-1.214 1.615-1.206.836.832-1.634 1.627-.001.001-1.242 1.237c-.293.292-.455.679-.455 1.092s.161.801.455 1.093c.301.3.698.45 1.094.45s.793-.15 1.095-.45l3.229-3.215.001-.002.937-.928-.003-.003c.006-.006.014-.008.02-.014l4.792-5.248 3.219.458a.475.475 0 0 0 .244-.031c.016-.006.031-.014.046-.022.018-.009.037-.014.053-.025l2.98-1.979c.011-.007.017-.019.027-.027.012-.009.027-.013.038-.024l1.179-1.105a1.65 1.65 0 0 0 .197-2.191zM3.831 16.482a.663.663 0 0 1-.518.048.663.663 0 0 1-.197-1.169l1.218-.586.417 1.217-.92.489zm3.244-1.695-1.436.742-.407-1.19 1.88-.928-.037 1.376zM21.08 8.646c0 .852-.203 1.655-.556 2.374l-3.878-1.762a1.728 1.728 0 0 0-.731-1.287l1.358-4.508c2.205.702 3.807 2.759 3.807 5.183zm-10.935 0c0-3 2.453-5.442 5.467-5.442.234 0 .464.02.691.048l-1.328 4.409c-.018 0-.035-.005-.053-.005-.958 0-1.737.777-1.737 1.731s.779 1.731 1.737 1.731c.644 0 1.201-.356 1.501-.876l3.583 1.628a5.464 5.464 0 0 1-4.393 2.217c-3.015 0-5.467-2.441-5.467-5.442zm5.525.743c0 .409-.335.742-.748.742s-.747-.333-.747-.742.335-.742.747-.742.748.333.748.742zM4.141 23.324a.563.563 0 0 1-.792 0 .55.55 0 0 1 0-.783l.892-.889.79.786-.889.885zm2.981 3.463a.563.563 0 0 1-.793 0 .55.55 0 0 1 0-.783l.893-.889.79.786-.89.886zm3.23-3.218-.002.001-1.637 1.632-.79-.786 1.635-1.628.001-.001c.037-.037.06-.082.083-.126.006-.013.019-.024.024-.037.015-.038.018-.079.024-.119.003-.023.013-.044.013-.067 0-.033-.012-.065-.019-.098-.006-.03-.006-.06-.017-.089a.484.484 0 0 0-.085-.128c-.009-.011-.013-.025-.023-.035h-.001l-.001-.002-1.49-1.484c-.016-.016-.036-.022-.054-.036a.434.434 0 0 0-.081-.053.448.448 0 0 0-.087-.03.44.44 0 0 0-.096-.018c-.03-.002-.058.001-.089.004a.453.453 0 0 0-.096.019.443.443 0 0 0-.088.042c-.018.01-.039.014-.056.027l-1.645 1.228-.836-.832 2.225-2.213 4.045 3.978-.86.852zm6.324-6.508c-.014-.002-.028.003-.042.003a.48.48 0 0 0-.356.127c-.012.01-.026.015-.037.027l-4.358 4.773-4.014-3.948 2.628-2.614a.496.496 0 0 0-.352-.845l-2.058.012.026-1.491 2.879.025a6.445 6.445 0 0 0 4.62 1.949c.406 0 .801-.042 1.187-.114a.49.49 0 0 0 .12.079l2.235.89.141.703.165.821-2.785-.396zm3.749.165-.29-1.445 1.342-1.002.878 1.165-1.929 1.281zm3.481-2.625-.777.728-.864-1.147.771-.591a.681.681 0 0 1 .504-.133.666.666 0 0 1 .366 1.143z" style="fill:var(--color2, #2e2f42)"/>
      <path fill="#2e2f42" d="m14.472 17.2-1.988-1.979a.495.495 0 0 0-.698 0L9.799 17.2a.496.496 0 0 0 0 .702l1.987 1.979a.493.493 0 0 0 .698 0l1.988-1.979a.497.497 0 0 0 0-.702zm-2.337 1.632-1.286-1.281 1.286-1.281 1.287 1.281-1.287 1.281zM17.776 4.703l-.239.961c.066.016 1.612.419 1.612 1.993h.989c0-1.871-1.545-2.751-2.362-2.954zM20.138 8.646h-.989v.989h.989v-.989z" style="fill:var(--color2, #2e2f42)"/>
    </symbol>
    <symbol id="icon-clock-1" viewBox="0 0 32 32">
      <path fill="#2e2f42" d="M31.297 15.301C31.295 6.849 24.442-.002 15.989 0S.686 6.855.688 15.308a15.304 15.304 0 0 0 10.649 14.576.662.662 0 0 0 .529-.065.637.637 0 0 0 .283-.356l3.865-12.25a1.912 1.912 0 1 0-.84-3.635l-5.106-5.107a.637.637 0 0 0-.902.902l5.103 5.109a1.876 1.876 0 0 0 .536 2.309l-3.683 11.673C3.844 25.783.118 17.71 2.799 10.432S13.553-.572 20.831 2.109c7.278 2.681 11.004 10.754 8.323 18.032a14.042 14.042 0 0 1-7.462 7.973l-.398-1.874a.637.637 0 0 0-1.049-.344l-3.837 3.426a.637.637 0 0 0 .231 1.084l4.899 1.564a.638.638 0 0 0 .819-.74l-.391-1.839a15.255 15.255 0 0 0 9.329-14.089zm-15.305-.637a.638.638 0 1 1 0 1.277.638.638 0 0 1 0-1.277zm2.101 14.864 2.184-1.948.603 2.84-2.787-.892z" style="fill:var(--color2, #2e2f42)"/>
      <path fill="#4d5ae5" d="M15.354 3.185V4.46a.638.638 0 1 0 1.276 0V3.185a.638.638 0 0 0-1.276 0zM3.876 14.664a.638.638 0 0 0 0 1.276h1.275a.638.638 0 1 0 0-1.276H3.876zM28.108 15.939a.638.638 0 1 0 0-1.276h-1.275a.638.638 0 0 0 0 1.276h1.275z" style="fill:var(--color1, #4d5ae5)"/>
    </symbol>
    <symbol id="icon-antenna-1" viewBox="0 0 32 32">
      <path fill="#2e2f42" d="m30.773 22.098-8.443-8.505.937-4.615c.242.094.499.144.758.146h.006a2.159 2.159 0 1 0-2.008-1.435l-4.96.605L8.972.161a.534.534 0 0 0-.377-.16.532.532 0 0 0-.373.155L6.709 1.66a.534.534 0 0 0 0 .754l.814.826a14.943 14.943 0 0 0 2.519 17.663.513.513 0 0 0 .146.098c-.034.18-.051.364-.052.547v6.187h-6.4a2.67 2.67 0 0 0-2.667 2.667v1.067c0 .295.239.533.533.533h24.533a.533.533 0 0 0 .533-.533v-1.067a2.67 2.67 0 0 0-2.667-2.667h-6.4v-2.742a15.09 15.09 0 0 0 3.049.32 14.854 14.854 0 0 0 7.04-1.783l.818.823a.534.534 0 0 0 .377.16.532.532 0 0 0 .373-.155l1.513-1.504a.534.534 0 0 0 0-.754zM23.28 6.233a1.067 1.067 0 1 1 .753 1.822h-.003a1.067 1.067 0 0 1-.747-1.823h-.002zm-1.256 3.505-.598 2.946-1.175-1.182 1.774-1.763zm-.605-.902-1.92 1.909-1.485-1.493 3.405-.415zM24.004 28.8a1.6 1.6 0 0 1 1.6 1.6v.533H2.137V30.4a1.6 1.6 0 0 1 1.6-1.6h20.267zm-7.467-2.133v1.067h-5.333v-1.067h5.333zM11.204 25.6v-4.053c0-1.294 1.196-2.347 2.667-2.347s2.667 1.053 2.667 2.347V25.6h-5.333zm6.4-1.696v-2.357c0-1.882-1.675-3.413-3.733-3.413a3.8 3.8 0 0 0-3.281 1.786A13.87 13.87 0 0 1 8.311 4.033l18.602 18.708a13.818 13.818 0 0 1-9.309 1.163zm11.289-.684L7.836 2.039l.755-.752 7.935 7.98c.004 0 .006.007.01.01l13.115 13.191-.757.752z" style="fill:var(--color2, #2e2f42)"/>
      <path fill="#4d5ae5" d="M13.876 20.267h-.005a1.6 1.6 0 1 0-.004 3.2h.005a1.6 1.6 0 1 0 .004-3.2zm.373 1.978a.534.534 0 0 1-.752-.756.534.534 0 0 1 .373-.155.534.534 0 0 1 .374.911h.005z" style="fill:var(--color1, #4d5ae5)"/>
    </symbol>
    <symbol id="icon-linkedin-1" viewBox="0 0 32 32">
      <path fill="#f4f4fd" d="M26.661 21.333v-.001h.005v-7.824c0-3.828-.824-6.776-5.299-6.776-2.151 0-3.595 1.18-4.184 2.3h-.062V7.09h-4.243v14.243h4.418v-7.052c0-1.857.352-3.652 2.652-3.652 2.266 0 2.299 2.119 2.299 3.772v6.934h4.413zM5.685 7.091h4.423v14.243H5.685V7.091zM7.895 0C6.481 0 5.333 1.148 5.333 2.562s1.148 2.586 2.562 2.586 2.562-1.172 2.562-2.586S9.309 0 7.895 0z" style="fill:var(--color1, #f4f4fd)"/>
    </symbol>
    <symbol id="icon-twitter-1" viewBox="0 0 32 32">
      <path fill="#f4f4fd" d="M32 6.078c-1.19.522-2.458.868-3.78 1.036a6.523 6.523 0 0 0 2.886-3.626 13.11 13.11 0 0 1-4.16 1.588A6.574 6.574 0 0 0 22.154 3c-3.632 0-6.556 2.948-6.556 6.562 0 .52.044 1.02.152 1.496-5.454-.266-10.28-2.88-13.522-6.862a6.605 6.605 0 0 0-.898 3.316 6.57 6.57 0 0 0 2.914 5.452 6.479 6.479 0 0 1-2.964-.808v.072c0 3.188 2.274 5.836 5.256 6.446a6.548 6.548 0 0 1-1.72.216 5.8 5.8 0 0 1-1.242-.112c.85 2.598 3.262 4.508 6.13 4.57a13.182 13.182 0 0 1-8.134 2.798c-.538 0-1.054-.024-1.57-.09A18.469 18.469 0 0 0 10.064 29c12.072 0 18.672-10 18.672-18.668 0-.29-.01-.57-.024-.848A13.087 13.087 0 0 0 32 6.078z" style="fill:var(--color1, #f4f4fd)"/>
    </symbol>
    <symbol id="icon-facebook-1" viewBox="0 0 32 32">
      <path fill="#f4f4fd" d="M21.329 5.313h2.921V.225C23.746.156 22.013 0 19.994 0c-4.212 0-7.097 2.649-7.097 7.519V12H8.249v5.688h4.648V32h5.699V17.689h4.46l.708-5.688h-5.169V8.082c.001-1.644.444-2.769 2.735-2.769z" style="fill:var(--color1, #f4f4fd)"/>
    </symbol>
    <symbol id="icon-instagram-2" viewBox="0 0 32 32">
      <path fill="#f4f4fd" d="M31.969 9.408c-.075-1.7-.35-2.869-.744-3.882a7.803 7.803 0 0 0-1.85-2.838A7.867 7.867 0 0 0 26.543.844C25.524.45 24.361.175 22.661.1 20.948.019 20.404 0 16.06 0s-4.888.019-6.595.094c-1.7.075-2.869.35-3.882.744a7.803 7.803 0 0 0-2.838 1.85A7.867 7.867 0 0 0 .901 5.52C.507 6.539.232 7.702.157 9.402c-.081 1.713-.1 2.257-.1 6.601s.019 4.888.094 6.595c.075 1.7.35 2.869.744 3.882a7.895 7.895 0 0 0 1.85 2.838 7.867 7.867 0 0 0 2.832 1.844c1.019.394 2.182.669 3.882.744 1.706.075 2.25.094 6.595.094s4.888-.019 6.595-.094c1.7-.075 2.869-.35 3.882-.744a8.181 8.181 0 0 0 4.682-4.682c.394-1.019.669-2.182.744-3.882.075-1.707.094-2.25.094-6.595s-.006-4.888-.081-6.595zm-2.882 13.065c-.069 1.563-.331 2.407-.55 2.969a5.31 5.31 0 0 1-3.038 3.038c-.563.219-1.413.481-2.969.55-1.688.075-2.194.094-6.464.094s-4.782-.019-6.464-.094c-1.563-.069-2.407-.331-2.969-.55a4.926 4.926 0 0 1-1.838-1.194 4.974 4.974 0 0 1-1.194-1.838c-.219-.563-.481-1.413-.55-2.969-.075-1.688-.094-2.194-.094-6.464s.019-4.782.094-6.464c.069-1.563.331-2.407.55-2.969a4.868 4.868 0 0 1 1.2-1.838A4.974 4.974 0 0 1 6.639 3.55c.563-.219 1.413-.481 2.969-.55 1.688-.075 2.194-.094 6.464-.094 4.276 0 4.782.019 6.464.094 1.563.069 2.407.331 2.969.55a4.914 4.914 0 0 1 1.838 1.194 4.974 4.974 0 0 1 1.194 1.838c.219.563.481 1.413.55 2.969.075 1.688.094 2.194.094 6.464s-.019 4.77-.094 6.458z" style="fill:var(--color1, #f4f4fd)"/>
      <path fill="#f4f4fd" d="M16.059 7.783c-4.538 0-8.22 3.682-8.22 8.22s3.682 8.22 8.22 8.22 8.22-3.682 8.22-8.22-3.682-8.22-8.22-8.22zm0 13.552a5.333 5.333 0 0 1 0-10.664 5.333 5.333 0 0 1 0 10.664zM26.524 7.458a1.919 1.919 0 1 1-3.838 0 1.919 1.919 0 0 1 3.838 0z" style="fill:var(--color1, #f4f4fd)"/>
    </symbol>
    <symbol id="icon-close-black-18dp-2-1" viewBox="0 0 32 32">
      <path d="M32 3.223 28.777 0 16 12.777 3.223 0 0 3.223 12.777 16 0 28.777 3.223 32 16 19.223 28.777 32 32 28.777 19.223 16 32 3.223z"/>
    </symbol>
    <symbol id="icon-phone-black-18dp-1" viewBox="0 0 24 32">
      <path d="m19.635 18.487-2.451-.28a1.92 1.92 0 0 0-1.582.55l-1.775 1.775a14.514 14.514 0 0 1-6.359-6.359l1.785-1.785c.415-.415.618-.994.55-1.582l-.28-2.432a1.931 1.931 0 0 0-1.92-1.708H5.934c-1.09 0-1.997.907-1.93 1.997.511 8.24 7.102 14.821 15.332 15.332 1.09.068 1.997-.839 1.997-1.93v-1.669a1.913 1.913 0 0 0-1.698-1.911z"/>
    </symbol>
    <symbol id="icon-person-black-18dp-1" viewBox="0 0 32 32">
      <path d="M16 16c2.947 0 5.333-2.387 5.333-5.333S18.946 5.334 16 5.334c-2.947 0-5.333 2.387-5.333 5.333S13.054 16 16 16zm0 2.667c-3.56 0-10.667 1.787-10.667 5.333v1.333c0 .733.6 1.333 1.333 1.333h18.667c.733 0 1.333-.6 1.333-1.333V24c0-3.547-7.107-5.333-10.667-5.333z"/>
    </symbol>
    <symbol id="icon-email-black-18dp-1" viewBox="0 0 30 32">
      <path d="M22.154 7.385H7.385a1.844 1.844 0 0 0-1.837 1.846l-.009 11.077c0 1.015.831 1.846 1.846 1.846h14.769A1.852 1.852 0 0 0 24 20.308V9.231a1.852 1.852 0 0 0-1.846-1.846zm-.369 3.923-6.526 4.08a.931.931 0 0 1-.978 0l-6.526-4.08a.784.784 0 1 1 .831-1.33l6.185 3.868 6.185-3.868a.784.784 0 1 1 .831 1.33z"/>
    </symbol>
    <symbol id="icon-Vector" viewBox="0 0 40 32">
      <path d="M33.782 1.02a3.668 3.668 0 0 1 5.115.039 3.712 3.712 0 0 1 .135 5.141L19.454 30.817a3.674 3.674 0 0 1-4.074.914 3.675 3.675 0 0 1-1.226-.815L1.17 17.862A3.693 3.693 0 0 1-.001 15.22a3.714 3.714 0 0 1 1.077-2.682 3.664 3.664 0 0 1 4.1-.763 3.68 3.68 0 0 1 1.195.857l10.275 10.325 17.042-21.83c.031-.038.063-.074.098-.109h-.005z"/>
    </symbol>
    <symbol id="icon-icon-send" viewBox="0 0 38 32">
      <path fill="#fff" d="M38.4 0 0 18l12.272 3.788L31.2 7 16.803 23.186l.012.004-.014-.004V32l6.882-6.691L32.401 28l6-28z" style="fill:var(--color1, #fff)"/>
    </symbol>

  </defs>
</svg>
